# xmcd CD database file
#
# Track frame offsets:
#	150
#	14330
#	26778
#	37906
#	49891
#	61421
#	74657
#	88176
#	96859
#	108752
#	125718
#	138515
#	150345
#	164148
#	175217
#	185540
#	197611
#	212564
#	222955
#	234638
#	244889
#	259254
#
# Disc length: 3787 seconds
#
# Revision: 0
# Processed by: cddbd v1.5.2PL0 Copyright (c) Steve Scherf et al.
# Submitted via: CDex 1.95
#
DISCID=470ec916
DTITLE=Dave Dudley - King Of Country Music-Vol 1
DYEAR=2005
DGENRE=Country
TTITLE0=Dave Dudley - You Ain't Gonna Truck With Us
TTITLE1=Dave Dudley - Freedom Of The Road
TTITLE2=Dave Dudley - Back Home
TTITLE3=Dave Dudley - I'm Proud To Say To Driva A Truck
TTITLE4=Dave Dudley - I'm Going Home
TTITLE5=Dave Dudley - Don't Mess With U.S.-Truckers
TTITLE6=Dave Dudley - Wandering Truck Drivin' Man
TTITLE7=Dave Dudley - Big weelin' Son Of A Gun
TTITLE8=Dave Dudley - A Want A Women With A Handle
TTITLE9=Dave Dudley - Sending The Old Man Home
TTITLE10=Dave Dudley - Me And Ole C.B.
TTITLE11=Dave Dudley - Six Days On The Road
TTITLE12=Dave Dudley - I Was Country Before Barbara Mandrell
TTITLE13=Dave Dudley - Get Me Back To Tennessee
TTITLE14=Dave Dudley - Fly Away Again
TTITLE15=Dave Dudley - Eagles Fly Alone
TTITLE16=Dave Dudley - Deutschland Autobahn
TTITLE17=Dave Dudley - Afraid Of A Heartache
TTITLE18=Dave Dudley - Ain't That A Shame
TTITLE19=Dave Dudley - Before My Time
TTITLE20=Dave Dudley - I Wish They'd Let Me Do That
TTITLE21=Dave Dudley - Lying Eyes
EXTD=YEAR: 2005
EXTT0=
EXTT1=
EXTT2=
EXTT3=
EXTT4=
EXTT5=
EXTT6=
EXTT7=
EXTT8=
EXTT9=
EXTT10=
EXTT11=
EXTT12=
EXTT13=
EXTT14=
EXTT15=
EXTT16=
EXTT17=
EXTT18=
EXTT19=
EXTT20=
EXTT21=
PLAYORDER=
